HIERARCHY
ROOT Pelvis
{
	OFFSET 0.000000 0.000000 0.000000
	CHANNELS 6 Xposition Yposition Zposition Xrotation Yrotation Zrotation
	JOINT LeftUpLeg_virtual
	{
		OFFSET 0.000000 0.000000 0.000000
		CHANNELS 3 Xrotation Yrotation Zrotation
		JOINT LeftUpLeg
		{
			OFFSET 18.735201 -5.666702 -4.541200
			CHANNELS 3 Xrotation Yrotation Zrotation
			JOINT LeftLeg
			{
				OFFSET -0.021200 -31.938179 0.493100
				CHANNELS 3 Xrotation Yrotation Zrotation
				JOINT LeftFoot
				{
					OFFSET 0.021200 -31.938179 -4.336299
					CHANNELS 3 Xrotation Yrotation Zrotation
					JOINT LeftToeBase
					{
						OFFSET 0.943001 -26.722000 15.023500
						CHANNELS 3 Xrotation Yrotation Zrotation
						End Site
						{
							OFFSET 0 0 0
						}
					}
				}
			}
		}
	}
	JOINT RightUpLeg_virtual
	{
		OFFSET 0.000000 0.000000 0.000000
		CHANNELS 3 Xrotation Yrotation Zrotation
		JOINT RightUpLeg
		{
			OFFSET -18.735201 -5.666702 -4.541200
			CHANNELS 3 Xrotation Yrotation Zrotation
			JOINT RightLeg
			{
				OFFSET 0.018946 -31.938133 0.493100
				CHANNELS 3 Xrotation Yrotation Zrotation
				JOINT RightFoot
				{
					OFFSET -0.018946 -31.938126 -4.336299
					CHANNELS 3 Xrotation Yrotation Zrotation
					JOINT RightToeBase
					{
						OFFSET -0.943001 -26.722004 15.023500
						CHANNELS 3 Xrotation Yrotation Zrotation
						End Site
						{
							OFFSET 0 0 0
						}
					}
				}
			}
		}
	}
	JOINT Hips_virtual
	{
		OFFSET 0.000000 0.000000 0.000000
		CHANNELS 3 Xrotation Yrotation Zrotation
		JOINT Hips
		{
			OFFSET -0.000000 -0.000000 -0.000000
			CHANNELS 3 Xrotation Yrotation Zrotation
			JOINT Spine
			{
				OFFSET 0.000000 10.199997 -0.299500
				CHANNELS 3 Xrotation Yrotation Zrotation
				JOINT Spine1
				{
					OFFSET 0.000000 11.900002 -1.516600
					CHANNELS 3 Xrotation Yrotation Zrotation
					JOINT Spine2
					{
						OFFSET 0.000000 13.600006 -2.842500
						CHANNELS 3 Xrotation Yrotation Zrotation
						JOINT Neck_virtual
						{
							OFFSET 0.000000 0.000000 0.000000
							CHANNELS 3 Xrotation Yrotation Zrotation
							JOINT Neck
							{
								OFFSET 0.000000 9.624100 -2.890100
								CHANNELS 3 Xrotation Yrotation Zrotation
								JOINT Head
								{
									OFFSET 0.000000 14.068802 -1.351900
									CHANNELS 3 Xrotation Yrotation Zrotation
									End Site
									{
										OFFSET 0 0 0
									}
								}
							}
						}
						JOINT LeftShoulder_virtual
						{
							OFFSET 0.000000 0.000000 0.000000
							CHANNELS 3 Xrotation Yrotation Zrotation
							JOINT LeftShoulder
							{
								OFFSET 15.263000 10.923401 -0.547700
								CHANNELS 3 Xrotation Yrotation Zrotation
								JOINT LeftArm
								{
									OFFSET 25.438599 -2.830597 -13.032500
									CHANNELS 3 Xrotation Yrotation Zrotation
									JOINT LeftForeArm
									{
										OFFSET 29.960503 0.000000 0.000000
										CHANNELS 3 Xrotation Yrotation Zrotation
										JOINT LeftHand
										{
											OFFSET 27.849251 0.000000 0.000000
											CHANNELS 3 Xrotation Yrotation Zrotation
											End Site
											{
												OFFSET 0 0 0
											}
										}
									}
								}
							}
						}
						JOINT RightShoulder_virtual
						{
							OFFSET 0.000000 0.000000 0.000000
							CHANNELS 3 Xrotation Yrotation Zrotation
							JOINT RightShoulder
							{
								OFFSET -15.263000 10.923401 -0.547700
								CHANNELS 3 Xrotation Yrotation Zrotation
								JOINT RightArm
								{
									OFFSET -25.438599 -2.830597 -13.032500
									CHANNELS 3 Xrotation Yrotation Zrotation
									JOINT RightForeArm
									{
										OFFSET -29.960503 0.000000 0.000000
										CHANNELS 3 Xrotation Yrotation Zrotation
										JOINT RightHand
										{
											OFFSET -27.849251 0.000000 0.000000
											CHANNELS 3 Xrotation Yrotation Zrotation
											End Site
											{
												OFFSET 0 0 0
											}
										}
									}
								}
							}
						}
					}
				}
			}
		}
	}
}
MOTION
Frames: 9
Frame Time: 0.03333333
0.179887 92.638428 1.821000 0.000000 0.000000 0.000000 5.343549 -6.380040 -2.904809 -34.743687 10.055605 13.772805 43.783261 16.848082 -7.958850 -8.951559 19.567391 -5.491145 0.000000 0.000000 0.000000 8.477862 -8.865781 5.080608 -19.403686 -8.781375 -10.403838 33.860823 -15.958406 1.599192 -17.752155 -19.478525 3.422624 0.000000 0.000000 0.000000 -5.955197 -8.187863 0.545330 -14.023780 8.950450 0.430855 9.561764 -3.670168 -0.711397 3.817656 -1.654662 -0.423752 0.000000 0.000000 0.000000 4.112203 -1.407524 -0.231656 0.300879 -0.229644 -0.502821 0.000000 0.000000 0.000000 3.709235 -2.885496 -0.466426 1.366499 -13.489886 -10.480463 -22.225014 -9.570485 -43.882528 -3.548710 -47.397305 -2.654390 0.000000 0.000000 0.000000 4.014288 -0.855735 1.396193 2.616255 6.996608 9.554081 -6.974210 -2.044936 51.574943 -2.728612 44.978121 5.254465 0.000000 0.000000 0.000000 
0.126184 92.625664 1.885147 0.000000 0.000000 0.000000 5.348852 -6.635286 -2.791752 -34.717568 9.954824 13.856851 44.021392 16.750313 -7.997479 -8.731668 19.504409 -5.601709 0.000000 0.000000 0.000000 8.588269 -8.958399 5.143467 -19.236999 -8.833980 -10.334408 33.817971 -16.003888 1.617779 -17.806126 -19.520657 3.415463 0.000000 0.000000 0.000000 -6.010565 -8.372712 0.534829 -14.029314 8.978576 0.380943 9.579596 -3.701493 -0.710961 3.818795 -1.653687 -0.391779 0.000000 0.000000 0.000000 4.091571 -1.414570 -0.215921 0.299686 -0.219017 -0.506161 0.000000 0.000000 0.000000 3.696031 -2.911851 -0.465049 1.360580 -13.492528 -10.550819 -22.326099 -9.585014 -43.706879 -3.528235 -47.368236 -2.639282 0.000000 0.000000 0.000000 4.010536 -0.843602 1.414330 2.653606 7.048920 9.568301 -6.918931 -2.078745 51.744441 -2.784405 45.095125 5.374328 0.000000 0.000000 0.000000 
0.023605 92.600388 2.001850 0.000000 0.000000 0.000000 5.336858 -7.122438 -2.591741 -34.698379 9.762864 14.003830 44.474667 16.530945 -8.054394 -8.303902 19.347766 -5.812693 0.000000 0.000000 0.000000 8.782562 -9.149699 5.268612 -18.943747 -8.936609 -10.197838 33.732040 -16.073127 1.643992 -17.906955 -19.582137 3.399731 0.000000 0.000000 0.000000 -6.124662 -8.728313 0.513155 -14.031100 9.030640 0.297655 9.602715 -3.754633 -0.711295 3.820045 -1.653287 -0.336556 0.000000 0.000000 0.000000 4.055498 -1.426838 -0.187716 0.300504 -0.199928 -0.512468 0.000000 0.000000 0.000000 3.672065 -2.958463 -0.460760 1.348943 -13.492721 -10.668539 -22.514421 -9.610946 -43.374242 -3.490552 -47.326811 -2.608695 0.000000 0.000000 0.000000 4.005562 -0.822518 1.447587 2.723263 7.135884 9.594313 -6.808400 -2.152332 52.049303 -2.875631 45.291148 5.586893 0.000000 0.000000 0.000000 
-0.119962 92.562553 2.153821 0.000000 0.000000 0.000000 5.274277 -7.803162 -2.348331 -34.734644 9.496459 14.177883 45.097943 16.154292 -8.094549 -7.695815 19.048288 -6.103624 0.000000 0.000000 0.000000 9.020323 -9.445282 5.452888 -18.585880 -9.084022 -10.000304 33.602027 -16.130866 1.660797 -18.043417 -19.626625 3.374528 0.000000 0.000000 0.000000 -6.300018 -9.229413 0.480536 -14.013863 9.099033 0.208026 9.615870 -3.814588 -0.714660 3.820423 -1.655957 -0.272108 0.000000 0.000000 0.000000 4.012752 -1.441300 -0.152524 0.308035 -0.175866 -0.521176 0.000000 0.000000 0.000000 3.642192 -3.015200 -0.451089 1.333372 -13.482012 -10.797877 -22.762167 -9.642522 -42.917941 -3.440344 -47.296762 -2.561918 0.000000 0.000000 0.000000 4.003170 -0.797387 1.490566 2.815889 7.229789 9.627445 -6.647179 -2.273942 52.434850 -2.971653 45.509649 5.848189 0.000000 0.000000 0.000000 
-0.295829 92.511551 2.325980 0.000000 0.000000 0.000000 5.134126 -8.635534 -2.109090 -34.865667 9.175909 14.338778 45.826850 15.590226 -8.077926 -6.954310 18.557101 -6.444891 0.000000 0.000000 0.000000 9.264658 -9.841672 5.687495 -18.221404 -9.268226 -9.754249 33.426017 -16.140543 1.652217 -18.204350 -19.617715 3.341887 0.000000 0.000000 0.000000 -6.532480 -9.843115 0.439868 -13.960689 9.173746 0.138998 9.613250 -3.866706 -0.724012 3.820097 -1.664059 -0.212675 0.000000 0.000000 0.000000 3.972975 -1.454682 -0.116485 0.325956 -0.150456 -0.531768 0.000000 0.000000 0.000000 3.613438 -3.071097 -0.433567 1.318343 -13.451136 -10.905282 -23.030192 -9.672392 -42.380378 -3.381920 -47.296908 -2.498652 0.000000 0.000000 0.000000 4.006696 -0.772760 1.536671 2.919526 7.304133 9.661396 -6.449537 -2.447949 52.844675 -3.046076 45.702688 6.112957 0.000000 0.000000 0.000000 
-0.495829 92.446815 2.510748 0.000000 0.000000 0.000000 4.908501 -9.582708 -1.913134 -35.103597 8.821892 14.452247 46.583338 14.828599 -7.970559 -6.145668 17.843224 -6.801835 0.000000 0.000000 0.000000 9.494424 -10.321983 5.955617 -17.885658 -9.478674 -9.480177 33.201147 -16.075053 1.608816 -18.382488 -19.530023 3.307547 0.000000 0.000000 0.000000 -6.807646 -10.530738 0.396903 -13.856392 9.243224 0.106057 9.603732 -3.901323 -0.742404 3.820372 -1.678712 -0.168295 0.000000 0.000000 0.000000 3.943563 -1.464401 -0.085085 0.354756 -0.126534 -0.543963 0.000000 0.000000 0.000000 3.594268 -3.117389 -0.406655 1.310260 -13.392882 -10.971492 -23.276315 -9.693145 -41.808981 -3.319258 -47.334707 -2.420889 0.000000 0.000000 0.000000 4.017752 -0.751267 1.579579 3.022162 7.342722 9.689813 -6.240357 -2.668903 53.234720 -3.087520 45.850537 6.347632 0.000000 0.000000 0.000000 
-0.712151 92.369148 2.708719 0.000000 0.000000 0.000000 4.611688 -10.617063 -1.783994 -35.429789 8.453064 14.496522 47.285287 13.884949 -7.753576 -5.348660 16.904194 -7.141499 0.000000 0.000000 0.000000 9.706121 -10.858554 6.232847 -17.587329 -9.703157 -9.205944 32.923837 -15.922313 1.529278 -18.576373 -19.354067 3.279297 0.000000 0.000000 0.000000 -7.102497 -11.250444 0.358194 -13.689120 9.296092 0.106258 9.605542 -3.915214 -0.772124 3.822356 -1.699277 -0.142749 0.000000 0.000000 0.000000 3.927324 -1.469221 -0.062445 0.390991 -0.105861 -0.557705 0.000000 0.000000 0.000000 3.593083 -3.149215 -0.370364 1.314842 -13.304458 -10.995577 -23.467196 -9.698523 -41.253912 -3.257949 -47.408002 -2.335079 0.000000 0.000000 0.000000 4.036107 -0.733186 1.614553 3.114478 7.342867 9.708567 -6.049845 -2.919142 53.577404 -3.100927 45.963939 6.535043 0.000000 0.000000 0.000000 
-0.936723 92.281502 2.925709 0.000000 0.000000 0.000000 4.274237 -11.720781 -1.728785 -35.803807 8.084289 14.463778 47.859556 12.797322 -7.427767 -4.641019 15.767878 -7.439807 0.000000 0.000000 0.000000 9.907721 -11.421190 6.491519 -17.316603 -9.929680 -8.962320 32.589862 -15.684992 1.418288 -18.790253 -19.094861 3.263756 0.000000 0.000000 0.000000 -7.391717 -11.963387 0.327677 -13.452143 9.323639 0.119284 9.634346 -3.909855 -0.813701 3.825168 -1.723744 -0.134124 0.000000 0.000000 0.000000 3.921843 -1.469495 -0.051169 0.428187 -0.089380 -0.572948 0.000000 0.000000 0.000000 3.616015 -3.165620 -0.326455 1.334247 -13.189106 -10.990398 -23.588914 -9.683779 -40.765837 -3.207298 -47.510154 -2.252950 0.000000 0.000000 0.000000 4.060376 -0.717107 1.639158 3.191585 7.312623 9.718038 -5.904126 -3.171881 53.857589 -3.100136 46.070179 6.670863 0.000000 0.000000 0.000000 
-1.161095 92.188644 3.169117 0.000000 0.000000 0.000000 3.932521 -12.884202 -1.741693 -36.178061 7.725490 14.357724 48.254965 11.617751 -7.012498 -4.083985 14.486684 -7.685809 0.000000 0.000000 0.000000 10.110647 -11.986459 6.707807 -17.057142 -10.149060 -8.775868 32.195575 -15.375987 1.283053 -19.031359 -18.766677 3.263903 0.000000 0.000000 0.000000 -7.655063 -12.643611 0.303900 -13.146857 9.321373 0.116431 9.693263 -3.888192 -0.865132 3.825010 -1.749691 -0.137232 0.000000 0.000000 0.000000 3.920860 -1.467030 -0.052398 0.458934 -0.077659 -0.589341 0.000000 0.000000 0.000000 3.664772 -3.168338 -0.278200 1.365881 -13.055586 -10.973204 -23.650763 -9.644977 -40.390566 -3.180653 -47.633565 -2.189787 0.000000 0.000000 0.000000 4.088897 -0.701051 1.653221 3.252731 7.265231 9.724046 -5.816919 -3.399140 54.066186 -3.097995 46.193802 6.756896 0.000000 0.000000 0.000000 
